<mxfile host="Electron" modified="2023-10-26T05:24:04.000Z" agent="Mozilla/5.0 (X11; Linux x86_64) AppleWebKit/537.36 (KHTML, like Gecko) draw.io/22.0.3 Chrome/114.0.5735.289 Electron/25.8.4 Safari/537.36" etag="2EL8AVVbL9qOCuRL1-Xd" version="22.0.3" type="device">
  <diagram name="Page-1" id="oEsDWHhmyINH0tr1Q9WG">
    <mxGraphModel dx="1120" dy="523" grid="1" gridSize="10" guides="1" tooltips="1" connect="1" arrows="1" fold="1" page="1" pageScale="1" pageWidth="827" pageHeight="1169" math="0" shadow="0">
      <root>
        <mxCell id="0" />
        <mxCell id="1" parent="0" />
        <mxCell id="FrHfALclw8nHFoq5oetM-4" style="edgeStyle=orthogonalEdgeStyle;rounded=0;orthogonalLoop=1;jettySize=auto;html=1;entryX=0;entryY=0.5;entryDx=0;entryDy=0;" edge="1" parent="1" source="FrHfALclw8nHFoq5oetM-1" target="FrHfALclw8nHFoq5oetM-3">
          <mxGeometry relative="1" as="geometry" />
        </mxCell>
        <mxCell id="FrHfALclw8nHFoq5oetM-1" value="&lt;b&gt;&lt;font style=&quot;font-size: 18px;&quot;&gt;ARXIV&lt;br&gt;search papers&amp;nbsp;&lt;/font&gt;&lt;/b&gt;" style="rounded=1;whiteSpace=wrap;html=1;" vertex="1" parent="1">
          <mxGeometry x="80" y="80" width="160" height="80" as="geometry" />
        </mxCell>
        <mxCell id="FrHfALclw8nHFoq5oetM-6" style="edgeStyle=orthogonalEdgeStyle;rounded=0;orthogonalLoop=1;jettySize=auto;html=1;entryX=0;entryY=0.5;entryDx=0;entryDy=0;" edge="1" parent="1" source="FrHfALclw8nHFoq5oetM-2" target="FrHfALclw8nHFoq5oetM-3">
          <mxGeometry relative="1" as="geometry" />
        </mxCell>
        <mxCell id="FrHfALclw8nHFoq5oetM-2" value="&lt;span style=&quot;font-size: 18px;&quot;&gt;&lt;b&gt;Parameters: numbers of papers, prompt&lt;br&gt;&lt;/b&gt;&lt;/span&gt;" style="rounded=1;whiteSpace=wrap;html=1;" vertex="1" parent="1">
          <mxGeometry x="80" y="200" width="160" height="80" as="geometry" />
        </mxCell>
        <mxCell id="FrHfALclw8nHFoq5oetM-8" value="" style="edgeStyle=orthogonalEdgeStyle;rounded=0;orthogonalLoop=1;jettySize=auto;html=1;" edge="1" parent="1" source="FrHfALclw8nHFoq5oetM-3" target="FrHfALclw8nHFoq5oetM-7">
          <mxGeometry relative="1" as="geometry" />
        </mxCell>
        <mxCell id="FrHfALclw8nHFoq5oetM-3" value="&lt;span style=&quot;font-size: 18px;&quot;&gt;&lt;b&gt;Search papaers using ARXIV API&lt;/b&gt;&lt;/span&gt;" style="rounded=1;whiteSpace=wrap;html=1;" vertex="1" parent="1">
          <mxGeometry x="280" y="140" width="160" height="80" as="geometry" />
        </mxCell>
        <mxCell id="FrHfALclw8nHFoq5oetM-7" value="&lt;span style=&quot;font-size: 18px;&quot;&gt;&lt;b&gt;Create vectors using Sentence Transformer&lt;/b&gt;&lt;/span&gt;" style="rounded=1;whiteSpace=wrap;html=1;" vertex="1" parent="1">
          <mxGeometry x="480" y="140" width="160" height="80" as="geometry" />
        </mxCell>
        <mxCell id="FrHfALclw8nHFoq5oetM-11" value="&lt;b&gt;&lt;font style=&quot;font-size: 18px;&quot;&gt;Vector DB&lt;/font&gt;&lt;/b&gt;" style="shape=cylinder3;whiteSpace=wrap;html=1;boundedLbl=1;backgroundOutline=1;size=15;" vertex="1" parent="1">
          <mxGeometry x="680" y="280" width="80" height="120" as="geometry" />
        </mxCell>
        <mxCell id="FrHfALclw8nHFoq5oetM-12" style="edgeStyle=orthogonalEdgeStyle;rounded=0;orthogonalLoop=1;jettySize=auto;html=1;entryX=0.5;entryY=0;entryDx=0;entryDy=0;entryPerimeter=0;" edge="1" parent="1" source="FrHfALclw8nHFoq5oetM-7" target="FrHfALclw8nHFoq5oetM-11">
          <mxGeometry relative="1" as="geometry" />
        </mxCell>
        <mxCell id="FrHfALclw8nHFoq5oetM-19" style="edgeStyle=orthogonalEdgeStyle;rounded=0;orthogonalLoop=1;jettySize=auto;html=1;entryX=0;entryY=0.5;entryDx=0;entryDy=0;" edge="1" parent="1" source="FrHfALclw8nHFoq5oetM-13" target="FrHfALclw8nHFoq5oetM-18">
          <mxGeometry relative="1" as="geometry" />
        </mxCell>
        <mxCell id="FrHfALclw8nHFoq5oetM-24" style="edgeStyle=orthogonalEdgeStyle;rounded=0;orthogonalLoop=1;jettySize=auto;html=1;entryX=0;entryY=0.5;entryDx=0;entryDy=0;" edge="1" parent="1" source="FrHfALclw8nHFoq5oetM-13" target="FrHfALclw8nHFoq5oetM-22">
          <mxGeometry relative="1" as="geometry" />
        </mxCell>
        <mxCell id="FrHfALclw8nHFoq5oetM-13" value="&lt;span style=&quot;font-size: 18px;&quot;&gt;&lt;b&gt;Query + Chat history&lt;/b&gt;&lt;/span&gt;" style="rounded=1;whiteSpace=wrap;html=1;" vertex="1" parent="1">
          <mxGeometry x="80" y="400" width="160" height="80" as="geometry" />
        </mxCell>
        <mxCell id="FrHfALclw8nHFoq5oetM-16" value="&lt;span style=&quot;font-size: 18px;&quot;&gt;&lt;b&gt;Response&lt;/b&gt;&lt;/span&gt;" style="rounded=1;whiteSpace=wrap;html=1;" vertex="1" parent="1">
          <mxGeometry x="80" y="520" width="160" height="80" as="geometry" />
        </mxCell>
        <mxCell id="FrHfALclw8nHFoq5oetM-23" value="" style="edgeStyle=orthogonalEdgeStyle;rounded=0;orthogonalLoop=1;jettySize=auto;html=1;" edge="1" parent="1" source="FrHfALclw8nHFoq5oetM-17" target="FrHfALclw8nHFoq5oetM-22">
          <mxGeometry relative="1" as="geometry" />
        </mxCell>
        <mxCell id="FrHfALclw8nHFoq5oetM-17" value="&lt;span style=&quot;font-size: 18px;&quot;&gt;&lt;b&gt;Similar vectors&lt;/b&gt;&lt;/span&gt;" style="rounded=1;whiteSpace=wrap;html=1;" vertex="1" parent="1">
          <mxGeometry x="520" y="400" width="160" height="80" as="geometry" />
        </mxCell>
        <mxCell id="FrHfALclw8nHFoq5oetM-18" value="&lt;span style=&quot;font-size: 18px;&quot;&gt;&lt;b&gt;Query vector using sentence transformer&lt;/b&gt;&lt;/span&gt;" style="rounded=1;whiteSpace=wrap;html=1;" vertex="1" parent="1">
          <mxGeometry x="320" y="280" width="160" height="80" as="geometry" />
        </mxCell>
        <mxCell id="FrHfALclw8nHFoq5oetM-20" style="edgeStyle=orthogonalEdgeStyle;rounded=0;orthogonalLoop=1;jettySize=auto;html=1;entryX=0;entryY=0.5;entryDx=0;entryDy=0;entryPerimeter=0;" edge="1" parent="1" source="FrHfALclw8nHFoq5oetM-18" target="FrHfALclw8nHFoq5oetM-11">
          <mxGeometry relative="1" as="geometry" />
        </mxCell>
        <mxCell id="FrHfALclw8nHFoq5oetM-21" style="edgeStyle=orthogonalEdgeStyle;rounded=0;orthogonalLoop=1;jettySize=auto;html=1;entryX=1;entryY=0.6;entryDx=0;entryDy=0;entryPerimeter=0;" edge="1" parent="1" source="FrHfALclw8nHFoq5oetM-11" target="FrHfALclw8nHFoq5oetM-17">
          <mxGeometry relative="1" as="geometry">
            <Array as="points">
              <mxPoint x="720" y="448" />
            </Array>
          </mxGeometry>
        </mxCell>
        <mxCell id="FrHfALclw8nHFoq5oetM-26" value="" style="edgeStyle=orthogonalEdgeStyle;rounded=0;orthogonalLoop=1;jettySize=auto;html=1;" edge="1" parent="1" source="FrHfALclw8nHFoq5oetM-22" target="FrHfALclw8nHFoq5oetM-25">
          <mxGeometry relative="1" as="geometry" />
        </mxCell>
        <mxCell id="FrHfALclw8nHFoq5oetM-22" value="&lt;span style=&quot;font-size: 18px;&quot;&gt;&lt;b&gt;Prompt + Context + Chat history + Query&lt;br&gt;&lt;/b&gt;&lt;/span&gt;" style="rounded=1;whiteSpace=wrap;html=1;" vertex="1" parent="1">
          <mxGeometry x="320" y="400" width="160" height="80" as="geometry" />
        </mxCell>
        <mxCell id="FrHfALclw8nHFoq5oetM-27" value="" style="edgeStyle=orthogonalEdgeStyle;rounded=0;orthogonalLoop=1;jettySize=auto;html=1;" edge="1" parent="1" source="FrHfALclw8nHFoq5oetM-25" target="FrHfALclw8nHFoq5oetM-16">
          <mxGeometry relative="1" as="geometry" />
        </mxCell>
        <mxCell id="FrHfALclw8nHFoq5oetM-25" value="&lt;span style=&quot;font-size: 18px;&quot;&gt;&lt;b&gt;ChatGPT&lt;br&gt;(3.5 or 4)&lt;br&gt;&lt;/b&gt;&lt;/span&gt;" style="rounded=1;whiteSpace=wrap;html=1;" vertex="1" parent="1">
          <mxGeometry x="320" y="520" width="160" height="80" as="geometry" />
        </mxCell>
      </root>
    </mxGraphModel>
  </diagram>
</mxfile>
